<svg id="Layer_1" data-name="Layer 1" xmlns="http://www.w3.org/2000/svg" xmlns:xlink="http://www.w3.org/1999/xlink" viewBox="0 0 837 160">
  <defs>
    <linearGradient id="linear-gradient" x1="262.22" y1="180.27" x2="424.52" y2="63.29" gradientUnits="userSpaceOnUse">
      <stop offset="0" stop-color="#40b9ae"/>
      <stop offset="1" stop-color="#37BFEC"/>
    </linearGradient>
    <linearGradient id="linear-gradient-2" x1="-1.98" y1="80.04" x2="838.83" y2="80.04" xlink:href="#linear-gradient"/>
  </defs>
  <title>tay</title>
  <path d="M0,57V36.55H14.14V14.22H40.7V36.55H63.44V57H40.7V94.16c0,3.87,1,6.84,3,8.92s4.78,3.11,8.38,3.11a17,17,0,0,0,10.71-3.4l7.14,18.76q-8.06,5.73-21.59,5.73-16.35,0-25.27-8.35T14.14,94.49V57ZM78.88,99.63q0-12.78,9.59-20.08t29.67-7.31h21.09q0-8.71-5.27-13.36t-15.82-4.65a46.46,46.46,0,0,0-14.36,2.28,38.78,38.78,0,0,0-12,6.19L82.29,44.19A56.2,56.2,0,0,1,100.17,36a80.91,80.91,0,0,1,21.54-2.86q21.38,0,32.73,10.08t11.35,30.51V126h-24.9V114.58q-7.47,12.69-27.89,12.7-15.69,0-24.9-7.76A24.84,24.84,0,0,1,78.88,99.63Zm25.82-1.24a9.55,9.55,0,0,0,4,8q4,3,11,3a23.1,23.1,0,0,0,12.08-3.15,17.49,17.49,0,0,0,7.51-9.22V87.68H121.05Q104.7,87.68,104.7,98.39Zm69.39,53.67,9.63-18.66a22.05,22.05,0,0,0,14.94,5.83,14.24,14.24,0,0,0,8.93-2.66q3.43-2.67,6.1-8.83l.33-.83-39.6-92.44h27.31l25.74,62.29,25.81-62.29h25.48l-41.33,97.12q-6.31,15.78-15.48,22.25t-22.37,6.47a46.6,46.6,0,0,1-14.12-2.2A31.7,31.7,0,0,1,174.09,152.06Zm103.6-41.39a15.67,15.67,0,0,1,4.69-11.82,16.21,16.21,0,0,1,11.74-4.53,16.4,16.4,0,0,1,11.79,4.53,15.62,15.62,0,0,1,4.73,11.82,16.48,16.48,0,1,1-32.95,0Zm49.53-6.1a45.9,45.9,0,0,1-6.54-24.36,46,46,0,0,1,6.54-24.36A44.69,44.69,0,0,1,345.4,39.12a56.87,56.87,0,0,1,26.33-6q14.44,0,25.24,6.06a36.25,36.25,0,0,1,15.77,17.18l-20.59,11Q385,54.89,371.57,54.89a23.3,23.3,0,0,0-17.19,6.81q-6.79,6.81-6.8,18.51t6.8,18.51a23.3,23.3,0,0,0,17.19,6.81q13.6,0,20.58-12.54l20.59,11.21a36.45,36.45,0,0,1-15.77,17q-10.8,6.06-25.24,6.06a56.87,56.87,0,0,1-26.33-6A44.63,44.63,0,0,1,327.22,104.57Zm107,9.47Q420,100.79,420,80.21t14.28-33.83q14.26-13.23,36.06-13.23t35.95,13.23Q520.4,59.63,520.4,80.21T506.25,114q-14.16,13.23-35.95,13.24T434.24,114Zm19.24-52.26q-6.63,6.9-6.62,18.43t6.62,18.43a22.36,22.36,0,0,0,16.82,6.89q10.2,0,16.7-6.85t6.51-18.47q0-11.62-6.51-18.47t-16.7-6.85A22.36,22.36,0,0,0,453.48,61.78Zm84.19,43.29a50.05,50.05,0,0,1-6.06-24.86,50.05,50.05,0,0,1,6.06-24.86,41.51,41.51,0,0,1,16.45-16.52,47.7,47.7,0,0,1,23.27-5.68q17.49,0,27.26,11V-.22h26.57V126H605.9V115.41q-9.87,11.86-28.51,11.87a47.7,47.7,0,0,1-23.27-5.69A41.51,41.51,0,0,1,537.67,105.07Zm27.46-43.29q-6.63,6.9-6.63,18.43t6.63,18.43A22.34,22.34,0,0,0,582,105.53a22,22,0,0,0,16.61-6.89q6.6-6.89,6.59-18.43t-6.59-18.43A22,22,0,0,0,582,54.89,22.34,22.34,0,0,0,565.13,61.78ZM648.9,80.21A46.86,46.86,0,0,1,655.25,56a44.42,44.42,0,0,1,17.47-16.81,54.75,54.75,0,0,1,49.14-.37A42,42,0,0,1,739,55.31q6.31,10.88,6.31,25.23,0,.42-.5,7.14H675.54a21.84,21.84,0,0,0,8.84,13.57q6.93,4.94,17.31,4.94,13.69,0,23-8.88l14.11,15.31Q725.94,127.28,701,127.28q-15.53,0-27.44-6.06a43.92,43.92,0,0,1-18.3-16.77A46.39,46.39,0,0,1,648.9,80.21Zm26.31-8h45.07a21.83,21.83,0,0,0-22.49-19.09q-9,0-15.11,5.15A22.19,22.19,0,0,0,675.21,72.24Zm78.86,45.24,8.8-19.09a55.38,55.38,0,0,0,14.85,6.43,61.63,61.63,0,0,0,16.94,2.45q16.85,0,16.85-8.38a5,5,0,0,0-1.87-4,13.68,13.68,0,0,0-5.31-2.49q-3.44-.92-7.49-1.63t-8.58-1.41c-3-.47-6-1-9-1.57A36.52,36.52,0,0,1,770.59,85a32.17,32.17,0,0,1-7.35-4.69A18.67,18.67,0,0,1,758.18,73a26.77,26.77,0,0,1-1.87-10.33q0-13.29,11.29-21.42t31-8.13a88.47,88.47,0,0,1,19.18,2.11,55.3,55.3,0,0,1,15.93,5.85L825,60a53.15,53.15,0,0,0-26.32-6.81q-8.46,0-12.74,2.38t-4.27,6.2a5.75,5.75,0,0,0,2.88,5,22.4,22.4,0,0,0,7.7,2.85q4.81,1,10.45,1.65a83.07,83.07,0,0,1,12,2.41A55.34,55.34,0,0,1,825.85,78a20.07,20.07,0,0,1,7.94,7.77,24.15,24.15,0,0,1,3,12.43q0,13-11.5,21t-31.67,8a91,91,0,0,1-22.24-2.74Q760.55,121.79,754.07,117.48Z" style="stroke-miterlimit: 10;stroke-width: 4px;fill: url(#linear-gradient);stroke: url(#linear-gradient-2)"/>
</svg>
