<svg id="Layer_1" data-name="Layer 1" xmlns="http://www.w3.org/2000/svg" xmlns:xlink="http://www.w3.org/1999/xlink" viewBox="0 0 112.74 114.69">
  <defs>
    <linearGradient id="linear-gradient" x1="8.22" y1="57.34" x2="104.53" y2="57.34" gradientUnits="userSpaceOnUse">
      <stop offset="0" stop-color="#40b9ae"/>
      <stop offset="1" stop-color="#37bfee"/>
    </linearGradient>
    <linearGradient id="linear-gradient-2" x1="20.63" y1="57.34" x2="92.11" y2="57.34" xlink:href="#linear-gradient"/>
    <linearGradient id="linear-gradient-3" x1="34.71" y1="73.37" x2="78.14" y2="73.37" xlink:href="#linear-gradient"/>
    <linearGradient id="linear-gradient-4" x1="72.2" y1="64" x2="80.8" y2="64" xlink:href="#linear-gradient"/>
    <linearGradient id="linear-gradient-5" x1="31.94" y1="64" x2="40.54" y2="64" xlink:href="#linear-gradient"/>
    <linearGradient id="linear-gradient-6" x1="40.74" y1="45.19" x2="49.59" y2="45.19" xlink:href="#linear-gradient"/>
    <linearGradient id="linear-gradient-7" x1="63.01" y1="45.19" x2="71.86" y2="45.19" xlink:href="#linear-gradient"/>
  </defs>
  <title>smile-icon</title>
  <g>
    <rect x="9.35" y="10.36" width="94.03" height="93.97" rx="16.84" ry="16.84" style="fill: #e6e6e6;stroke-miterlimit: 10;stroke-width: 2.27420319725445px;stroke: url(#linear-gradient)"/>
    <circle cx="56.37" cy="57.34" r="34.05" style="fill: none;stroke-miterlimit: 10;stroke-width: 3.37875093571412px;stroke: url(#linear-gradient-2)"/>
    <path d="M36.35,64.84a20.66,20.66,0,0,0,40.15,0" style="fill: none;stroke-miterlimit: 10;stroke-width: 3.37875093571412px;stroke: url(#linear-gradient-3)"/>
    <line x1="72.63" y1="62.98" x2="80.37" y2="65.02" style="fill: none;stroke-miterlimit: 10;stroke-width: 3.37875093571412px;stroke: url(#linear-gradient-4)"/>
    <line x1="32.37" y1="65.02" x2="40.11" y2="62.98" style="fill: none;stroke-miterlimit: 10;stroke-width: 3.37875093571412px;stroke: url(#linear-gradient-5)"/>
    <circle cx="45.17" cy="45.19" r="4.42" style="fill: url(#linear-gradient-6)"/>
    <circle cx="67.43" cy="45.19" r="4.42" style="fill: url(#linear-gradient-7)"/>
  </g>
</svg>
